<svg width="24" height="24" viewBox="0 0 24 24" fill="none" xmlns="http://www.w3.org/2000/svg">
<g clip-path="url(#clip0_0_14)">
<path fill-rule="evenodd" clip-rule="evenodd" d="M19.5 3H4.5C3.67157 3 3 3.67157 3 4.5V19.5C3 20.3284 3.67157 21 4.5 21H19.5C20.3284 21 21 20.3284 21 19.5V4.5C21 3.67157 20.3284 3 19.5 3V3ZM19.5 19.5H4.5V15.75H7.18969L9 17.5613C9.28067 17.8432 9.66247 18.0012 10.0603 18H13.9397C14.3377 18.0013 14.7197 17.8429 15 17.5603L16.8103 15.75H19.5V19.5V19.5Z" fill="#0D141C"/>
</g>
<defs>
<clipPath id="clip0_0_14">
<rect width="24" height="24" fill="white"/>
</clipPath>
</defs>
</svg>
