<svg width="24" height="24" viewBox="0 0 24 24" fill="none" xmlns="http://www.w3.org/2000/svg">
<g clip-path="url(#clip0_0_22)">
<path fill-rule="evenodd" clip-rule="evenodd" d="M11.25 3.75V1.5C11.25 1.08579 11.5858 0.75 12 0.75C12.4142 0.75 12.75 1.08579 12.75 1.5V3.75C12.75 4.16421 12.4142 4.5 12 4.5C11.5858 4.5 11.25 4.16421 11.25 3.75V3.75ZM18 12C18 15.3137 15.3137 18 12 18C8.68629 18 6 15.3137 6 12C6 8.68629 8.68629 6 12 6C15.3122 6.00362 17.9964 8.68779 18 12V12ZM16.5 12C16.5 9.51472 14.4853 7.5 12 7.5C9.51472 7.5 7.5 9.51472 7.5 12C7.5 14.4853 9.51472 16.5 12 16.5C14.4842 16.4974 16.4974 14.4842 16.5 12V12ZM5.46938 6.53062C5.76243 6.82368 6.23757 6.82368 6.53062 6.53062C6.82368 6.23757 6.82368 5.76243 6.53062 5.46938L5.03062 3.96937C4.73757 3.67632 4.26243 3.67632 3.96937 3.96937C3.67632 4.26243 3.67632 4.73757 3.96937 5.03062L5.46938 6.53062ZM5.46938 17.4694L3.96937 18.9694C3.7798 19.1589 3.70576 19.4353 3.77515 19.6942C3.84454 19.9532 4.04681 20.1555 4.30578 20.2248C4.56474 20.2942 4.84105 20.2202 5.03062 20.0306L6.53062 18.5306C6.7202 18.3411 6.79424 18.0647 6.72485 17.8058C6.65546 17.5468 6.45319 17.3445 6.19422 17.2752C5.93526 17.2058 5.65895 17.2798 5.46938 17.4694V17.4694ZM18 6.75C18.199 6.75016 18.3899 6.67124 18.5306 6.53062L20.0306 5.03062C20.2202 4.84105 20.2942 4.56474 20.2248 4.30578C20.1555 4.04681 19.9532 3.84454 19.6942 3.77515C19.4353 3.70576 19.1589 3.7798 18.9694 3.96937L17.4694 5.46938C17.2546 5.68388 17.1903 6.00668 17.3065 6.28709C17.4227 6.5675 17.6965 6.75024 18 6.75V6.75ZM18.5306 17.4694C18.2376 17.1763 17.7624 17.1763 17.4694 17.4694C17.1763 17.7624 17.1763 18.2376 17.4694 18.5306L18.9694 20.0306C19.2624 20.3237 19.7376 20.3237 20.0306 20.0306C20.3237 19.7376 20.3237 19.2624 20.0306 18.9694L18.5306 17.4694ZM4.5 12C4.5 11.5858 4.16421 11.25 3.75 11.25H1.5C1.08579 11.25 0.75 11.5858 0.75 12C0.75 12.4142 1.08579 12.75 1.5 12.75H3.75C4.16421 12.75 4.5 12.4142 4.5 12V12ZM12 19.5C11.5858 19.5 11.25 19.8358 11.25 20.25V22.5C11.25 22.9142 11.5858 23.25 12 23.25C12.4142 23.25 12.75 22.9142 12.75 22.5V20.25C12.75 19.8358 12.4142 19.5 12 19.5V19.5ZM22.5 11.25H20.25C19.8358 11.25 19.5 11.5858 19.5 12C19.5 12.4142 19.8358 12.75 20.25 12.75H22.5C22.9142 12.75 23.25 12.4142 23.25 12C23.25 11.5858 22.9142 11.25 22.5 11.25V11.25Z" fill="#0D141C"/>
</g>
<defs>
<clipPath id="clip0_0_22">
<rect width="24" height="24" fill="white"/>
</clipPath>
</defs>
</svg>
