<svg width="24" height="24" viewBox="0 0 24 24" fill="none" xmlns="http://www.w3.org/2000/svg">
<g clip-path="url(#clip0_1_42)">
<path fill-rule="evenodd" clip-rule="evenodd" d="M20.25 4.5H16.5V3.75C16.5 2.50736 15.4926 1.5 14.25 1.5H9.75C8.50736 1.5 7.5 2.50736 7.5 3.75V4.5H3.75C3.33579 4.5 3 4.83579 3 5.25C3 5.66421 3.33579 6 3.75 6H4.5V19.5C4.5 20.3284 5.17157 21 6 21H18C18.8284 21 19.5 20.3284 19.5 19.5V6H20.25C20.6642 6 21 5.66421 21 5.25C21 4.83579 20.6642 4.5 20.25 4.5ZM9 3.75C9 3.33579 9.33579 3 9.75 3H14.25C14.6642 3 15 3.33579 15 3.75V4.5H9V3.75ZM18 19.5H6V6H18V19.5ZM10.5 9.75V15.75C10.5 16.1642 10.1642 16.5 9.75 16.5C9.33579 16.5 9 16.1642 9 15.75V9.75C9 9.33579 9.33579 9 9.75 9C10.1642 9 10.5 9.33579 10.5 9.75ZM15 9.75V15.75C15 16.1642 14.6642 16.5 14.25 16.5C13.8358 16.5 13.5 16.1642 13.5 15.75V9.75C13.5 9.33579 13.8358 9 14.25 9C14.6642 9 15 9.33579 15 9.75Z" fill="#0D141C"/>
</g>
<defs>
<clipPath id="clip0_1_42">
<rect width="24" height="24" fill="white"/>
</clipPath>
</defs>
</svg>
